<svg width="331" height="20" viewBox="0 0 331 20" fill="none" xmlns="http://www.w3.org/2000/svg">
<path d="M2.22852 9.18262V15H0.963867V7.60352H2.16016L2.22852 9.18262ZM1.92773 11.0215L1.40137 11.001C1.40592 10.4951 1.48112 10.028 1.62695 9.59961C1.77279 9.16667 1.97786 8.79069 2.24219 8.47168C2.50651 8.15267 2.82096 7.90658 3.18555 7.7334C3.55469 7.55566 3.96257 7.4668 4.40918 7.4668C4.77376 7.4668 5.10189 7.51693 5.39355 7.61719C5.68522 7.71289 5.93359 7.86784 6.13867 8.08203C6.34831 8.29622 6.50781 8.57422 6.61719 8.91602C6.72656 9.25326 6.78125 9.66569 6.78125 10.1533V15H5.50977V10.1396C5.50977 9.75228 5.4528 9.44238 5.33887 9.20996C5.22493 8.97298 5.05859 8.80208 4.83984 8.69727C4.62109 8.58789 4.35221 8.5332 4.0332 8.5332C3.71875 8.5332 3.43164 8.59928 3.17188 8.73145C2.91667 8.86361 2.69564 9.0459 2.50879 9.27832C2.3265 9.51074 2.18294 9.77734 2.07812 10.0781C1.97786 10.3743 1.92773 10.6888 1.92773 11.0215ZM11.7715 15.1367C11.2565 15.1367 10.7894 15.0501 10.3701 14.877C9.9554 14.6992 9.59766 14.4508 9.29688 14.1318C9.00065 13.8128 8.77279 13.4346 8.61328 12.9971C8.45378 12.5596 8.37402 12.0811 8.37402 11.5615V11.2744C8.37402 10.6729 8.46289 10.1374 8.64062 9.66797C8.81836 9.19401 9.0599 8.79297 9.36523 8.46484C9.67057 8.13672 10.0169 7.88835 10.4043 7.71973C10.7917 7.55111 11.1927 7.4668 11.6074 7.4668C12.1361 7.4668 12.5918 7.55794 12.9746 7.74023C13.362 7.92253 13.6787 8.17773 13.9248 8.50586C14.1709 8.82943 14.3532 9.21224 14.4717 9.6543C14.5902 10.0918 14.6494 10.5703 14.6494 11.0898V11.6572H9.12598V10.625H13.3848V10.5293C13.3665 10.2012 13.2982 9.88216 13.1797 9.57227C13.0658 9.26237 12.8835 9.00716 12.6328 8.80664C12.3822 8.60612 12.0404 8.50586 11.6074 8.50586C11.3203 8.50586 11.056 8.56738 10.8145 8.69043C10.5729 8.80892 10.3656 8.98665 10.1924 9.22363C10.0192 9.46061 9.88477 9.75 9.78906 10.0918C9.69336 10.4336 9.64551 10.8278 9.64551 11.2744V11.5615C9.64551 11.9124 9.69336 12.2428 9.78906 12.5527C9.88932 12.8581 10.0329 13.127 10.2197 13.3594C10.4111 13.5918 10.6413 13.7741 10.9102 13.9062C11.1836 14.0384 11.4935 14.1045 11.8398 14.1045C12.2865 14.1045 12.6647 14.0133 12.9746 13.8311C13.2845 13.6488 13.5557 13.4049 13.7881 13.0996L14.5537 13.708C14.3942 13.9495 14.1914 14.1797 13.9453 14.3984C13.6992 14.6172 13.3962 14.7949 13.0361 14.9316C12.6807 15.0684 12.2591 15.1367 11.7715 15.1367ZM16.9805 7.60352L18.6006 10.2969L20.2412 7.60352H21.7246L19.3047 11.2539L21.7998 15H20.3369L18.6279 12.2246L16.9189 15H15.4492L17.9375 11.2539L15.5244 7.60352H16.9805ZM26.168 7.60352V8.57422H22.1689V7.60352H26.168ZM23.5225 5.80566H24.7871V13.168C24.7871 13.4186 24.8258 13.6077 24.9033 13.7354C24.9808 13.863 25.0811 13.9473 25.2041 13.9883C25.3271 14.0293 25.4593 14.0498 25.6006 14.0498C25.7054 14.0498 25.8148 14.0407 25.9287 14.0225C26.0472 13.9997 26.1361 13.9814 26.1953 13.9678L26.2021 15C26.1019 15.0319 25.9697 15.0615 25.8057 15.0889C25.6462 15.1208 25.4525 15.1367 25.2246 15.1367C24.9147 15.1367 24.6299 15.0752 24.3701 14.9521C24.1104 14.8291 23.903 14.624 23.748 14.3369C23.5977 14.0452 23.5225 13.6533 23.5225 13.1611V5.80566ZM27.6855 7.60352H28.957V15.8818C28.957 16.333 28.8841 16.7158 28.7383 17.0303C28.597 17.3447 28.3828 17.5817 28.0957 17.7412C27.8132 17.9053 27.4554 17.9873 27.0225 17.9873C26.9085 17.9873 26.7764 17.9759 26.626 17.9531C26.471 17.9303 26.3411 17.903 26.2363 17.8711L26.2432 16.8525C26.3298 16.8708 26.4277 16.8844 26.5371 16.8936C26.6465 16.9072 26.7422 16.9141 26.8242 16.9141C27.0111 16.9141 27.1683 16.8799 27.2959 16.8115C27.4235 16.7432 27.5192 16.6338 27.583 16.4834C27.6514 16.333 27.6855 16.1325 27.6855 15.8818V7.60352ZM27.5557 5.6416C27.5557 5.43652 27.6195 5.26335 27.7471 5.12207C27.8747 4.98079 28.0592 4.91016 28.3008 4.91016C28.5469 4.91016 28.7337 4.98079 28.8613 5.12207C28.9889 5.26335 29.0527 5.43652 29.0527 5.6416C29.0527 5.83757 28.9889 6.00618 28.8613 6.14746C28.7337 6.28418 28.5469 6.35254 28.3008 6.35254C28.0592 6.35254 27.8747 6.28418 27.7471 6.14746C27.6195 6.00618 27.5557 5.83757 27.5557 5.6416ZM35.3076 13.0381C35.3076 12.8558 35.2666 12.6872 35.1846 12.5322C35.1071 12.3727 34.9453 12.2292 34.6992 12.1016C34.4577 11.9694 34.0931 11.8555 33.6055 11.7598C33.1953 11.6732 32.8239 11.5706 32.4912 11.4521C32.1631 11.3337 31.8828 11.1901 31.6504 11.0215C31.4225 10.8529 31.2471 10.6546 31.124 10.4268C31.001 10.1989 30.9395 9.93229 30.9395 9.62695C30.9395 9.33529 31.0033 9.05957 31.1309 8.7998C31.263 8.54004 31.4476 8.3099 31.6846 8.10938C31.9261 7.90885 32.2155 7.75163 32.5527 7.6377C32.89 7.52376 33.266 7.4668 33.6807 7.4668C34.2731 7.4668 34.779 7.57161 35.1982 7.78125C35.6175 7.99089 35.9388 8.27116 36.1621 8.62207C36.3854 8.96842 36.4971 9.35352 36.4971 9.77734H35.2324C35.2324 9.57227 35.1709 9.37402 35.0479 9.18262C34.9294 8.98665 34.7539 8.82487 34.5215 8.69727C34.2936 8.56966 34.0133 8.50586 33.6807 8.50586C33.3298 8.50586 33.0449 8.56055 32.8262 8.66992C32.612 8.77474 32.4548 8.90918 32.3545 9.07324C32.2588 9.2373 32.2109 9.41048 32.2109 9.59277C32.2109 9.72949 32.2337 9.85254 32.2793 9.96191C32.3294 10.0667 32.416 10.1647 32.5391 10.2559C32.6621 10.3424 32.8353 10.4245 33.0586 10.502C33.2819 10.5794 33.5667 10.6569 33.9131 10.7344C34.5192 10.8711 35.0182 11.0352 35.4102 11.2266C35.8021 11.418 36.0938 11.6527 36.2852 11.9307C36.4766 12.2087 36.5723 12.5459 36.5723 12.9424C36.5723 13.266 36.5039 13.5622 36.3672 13.8311C36.235 14.0999 36.0413 14.3324 35.7861 14.5283C35.5355 14.7197 35.2347 14.8701 34.8838 14.9795C34.5374 15.0843 34.1478 15.1367 33.7148 15.1367C33.0632 15.1367 32.5117 15.0205 32.0605 14.7881C31.6094 14.5557 31.2676 14.2549 31.0352 13.8857C30.8027 13.5166 30.6865 13.127 30.6865 12.7168H31.958C31.9762 13.0632 32.0765 13.3389 32.2588 13.5439C32.4411 13.7445 32.6644 13.888 32.9287 13.9746C33.193 14.0566 33.4551 14.0977 33.7148 14.0977C34.0612 14.0977 34.3506 14.0521 34.583 13.9609C34.82 13.8698 35 13.7445 35.123 13.585C35.2461 13.4255 35.3076 13.2432 35.3076 13.0381ZM40.8652 10.249V11.2881H37.5293V10.249H40.8652ZM45.1992 7.60352V8.57422H41.2002V7.60352H45.1992ZM42.5537 5.80566H43.8184V13.168C43.8184 13.4186 43.8571 13.6077 43.9346 13.7354C44.012 13.863 44.1123 13.9473 44.2354 13.9883C44.3584 14.0293 44.4906 14.0498 44.6318 14.0498C44.7367 14.0498 44.846 14.0407 44.96 14.0225C45.0785 13.9997 45.1673 13.9814 45.2266 13.9678L45.2334 15C45.1331 15.0319 45.001 15.0615 44.8369 15.0889C44.6774 15.1208 44.4837 15.1367 44.2559 15.1367C43.946 15.1367 43.6611 15.0752 43.4014 14.9521C43.1416 14.8291 42.9342 14.624 42.7793 14.3369C42.6289 14.0452 42.5537 13.6533 42.5537 13.1611V5.80566ZM50.9893 13.0381C50.9893 12.8558 50.9482 12.6872 50.8662 12.5322C50.7887 12.3727 50.627 12.2292 50.3809 12.1016C50.1393 11.9694 49.7747 11.8555 49.2871 11.7598C48.877 11.6732 48.5055 11.5706 48.1729 11.4521C47.8447 11.3337 47.5645 11.1901 47.332 11.0215C47.1042 10.8529 46.9287 10.6546 46.8057 10.4268C46.6826 10.1989 46.6211 9.93229 46.6211 9.62695C46.6211 9.33529 46.6849 9.05957 46.8125 8.7998C46.9447 8.54004 47.1292 8.3099 47.3662 8.10938C47.6077 7.90885 47.8971 7.75163 48.2344 7.6377C48.5716 7.52376 48.9476 7.4668 49.3623 7.4668C49.9548 7.4668 50.4606 7.57161 50.8799 7.78125C51.2992 7.99089 51.6204 8.27116 51.8438 8.62207C52.0671 8.96842 52.1787 9.35352 52.1787 9.77734H50.9141C50.9141 9.57227 50.8525 9.37402 50.7295 9.18262C50.611 8.98665 50.4355 8.82487 50.2031 8.69727C49.9753 8.56966 49.695 8.50586 49.3623 8.50586C49.0114 8.50586 48.7266 8.56055 48.5078 8.66992C48.2936 8.77474 48.1364 8.90918 48.0361 9.07324C47.9404 9.2373 47.8926 9.41048 47.8926 9.59277C47.8926 9.72949 47.9154 9.85254 47.9609 9.96191C48.0111 10.0667 48.0977 10.1647 48.2207 10.2559C48.3438 10.3424 48.5169 10.4245 48.7402 10.502C48.9635 10.5794 49.2484 10.6569 49.5947 10.7344C50.2008 10.8711 50.6999 11.0352 51.0918 11.2266C51.4837 11.418 51.7754 11.6527 51.9668 11.9307C52.1582 12.2087 52.2539 12.5459 52.2539 12.9424C52.2539 13.266 52.1855 13.5622 52.0488 13.8311C51.9167 14.0999 51.723 14.3324 51.4678 14.5283C51.2171 14.7197 50.9163 14.8701 50.5654 14.9795C50.2191 15.0843 49.8294 15.1367 49.3965 15.1367C48.7448 15.1367 48.1934 15.0205 47.7422 14.7881C47.291 14.5557 46.9492 14.2549 46.7168 13.8857C46.4844 13.5166 46.3682 13.127 46.3682 12.7168H47.6396C47.6579 13.0632 47.7581 13.3389 47.9404 13.5439C48.1227 13.7445 48.346 13.888 48.6104 13.9746C48.8747 14.0566 49.1367 14.0977 49.3965 14.0977C49.7428 14.0977 50.0322 14.0521 50.2646 13.9609C50.5016 13.8698 50.6816 13.7445 50.8047 13.585C50.9277 13.4255 50.9893 13.2432 50.9893 13.0381ZM56.5469 10.249V11.2881H53.2109V10.249H56.5469ZM62.3096 13.291V7.60352H63.5811V15H62.3711L62.3096 13.291ZM62.5488 11.7324L63.0752 11.7188C63.0752 12.2109 63.0228 12.6667 62.918 13.0859C62.8177 13.5007 62.6536 13.8607 62.4258 14.166C62.1979 14.4714 61.8994 14.7106 61.5303 14.8838C61.1611 15.0524 60.7122 15.1367 60.1836 15.1367C59.8236 15.1367 59.4932 15.0843 59.1924 14.9795C58.8962 14.8747 58.641 14.7129 58.4268 14.4941C58.2126 14.2754 58.0462 13.9906 57.9277 13.6396C57.8138 13.2887 57.7568 12.8672 57.7568 12.375V7.60352H59.0215V12.3887C59.0215 12.7214 59.0579 12.9971 59.1309 13.2158C59.2083 13.43 59.3109 13.6009 59.4385 13.7285C59.5706 13.8516 59.7165 13.9382 59.876 13.9883C60.04 14.0384 60.2087 14.0635 60.3818 14.0635C60.9196 14.0635 61.3457 13.9609 61.6602 13.7559C61.9746 13.5462 62.2002 13.266 62.3369 12.915C62.4782 12.5596 62.5488 12.1654 62.5488 11.7324ZM69.8154 13.0381C69.8154 12.8558 69.7744 12.6872 69.6924 12.5322C69.6149 12.3727 69.4531 12.2292 69.207 12.1016C68.9655 11.9694 68.6009 11.8555 68.1133 11.7598C67.7031 11.6732 67.3317 11.5706 66.999 11.4521C66.6709 11.3337 66.3906 11.1901 66.1582 11.0215C65.9303 10.8529 65.7549 10.6546 65.6318 10.4268C65.5088 10.1989 65.4473 9.93229 65.4473 9.62695C65.4473 9.33529 65.5111 9.05957 65.6387 8.7998C65.7708 8.54004 65.9554 8.3099 66.1924 8.10938C66.4339 7.90885 66.7233 7.75163 67.0605 7.6377C67.3978 7.52376 67.7738 7.4668 68.1885 7.4668C68.7809 7.4668 69.2868 7.57161 69.7061 7.78125C70.1253 7.99089 70.4466 8.27116 70.6699 8.62207C70.8932 8.96842 71.0049 9.35352 71.0049 9.77734H69.7402C69.7402 9.57227 69.6787 9.37402 69.5557 9.18262C69.4372 8.98665 69.2617 8.82487 69.0293 8.69727C68.8014 8.56966 68.5212 8.50586 68.1885 8.50586C67.8376 8.50586 67.5527 8.56055 67.334 8.66992C67.1198 8.77474 66.9626 8.90918 66.8623 9.07324C66.7666 9.2373 66.7188 9.41048 66.7188 9.59277C66.7188 9.72949 66.7415 9.85254 66.7871 9.96191C66.8372 10.0667 66.9238 10.1647 67.0469 10.2559C67.1699 10.3424 67.3431 10.4245 67.5664 10.502C67.7897 10.5794 68.0745 10.6569 68.4209 10.7344C69.027 10.8711 69.526 11.0352 69.918 11.2266C70.3099 11.418 70.6016 11.6527 70.793 11.9307C70.9844 12.2087 71.0801 12.5459 71.0801 12.9424C71.0801 13.266 71.0117 13.5622 70.875 13.8311C70.7428 14.0999 70.5492 14.3324 70.2939 14.5283C70.0433 14.7197 69.7425 14.8701 69.3916 14.9795C69.0452 15.0843 68.6556 15.1367 68.2227 15.1367C67.571 15.1367 67.0195 15.0205 66.5684 14.7881C66.1172 14.5557 65.7754 14.2549 65.543 13.8857C65.3105 13.5166 65.1943 13.127 65.1943 12.7168H66.4658C66.484 13.0632 66.5843 13.3389 66.7666 13.5439C66.9489 13.7445 67.1722 13.888 67.4365 13.9746C67.7008 14.0566 67.9629 14.0977 68.2227 14.0977C68.569 14.0977 68.8584 14.0521 69.0908 13.9609C69.3278 13.8698 69.5078 13.7445 69.6309 13.585C69.7539 13.4255 69.8154 13.2432 69.8154 13.0381ZM75.8105 15.1367C75.2956 15.1367 74.8285 15.0501 74.4092 14.877C73.9945 14.6992 73.6367 14.4508 73.3359 14.1318C73.0397 13.8128 72.8118 13.4346 72.6523 12.9971C72.4928 12.5596 72.4131 12.0811 72.4131 11.5615V11.2744C72.4131 10.6729 72.502 10.1374 72.6797 9.66797C72.8574 9.19401 73.099 8.79297 73.4043 8.46484C73.7096 8.13672 74.056 7.88835 74.4434 7.71973C74.8307 7.55111 75.2318 7.4668 75.6465 7.4668C76.1751 7.4668 76.6309 7.55794 77.0137 7.74023C77.401 7.92253 77.7178 8.17773 77.9639 8.50586C78.21 8.82943 78.3923 9.21224 78.5107 9.6543C78.6292 10.0918 78.6885 10.5703 78.6885 11.0898V11.6572H73.165V10.625H77.4238V10.5293C77.4056 10.2012 77.3372 9.88216 77.2188 9.57227C77.1048 9.26237 76.9225 9.00716 76.6719 8.80664C76.4212 8.60612 76.0794 8.50586 75.6465 8.50586C75.3594 8.50586 75.0951 8.56738 74.8535 8.69043C74.612 8.80892 74.4046 8.98665 74.2314 9.22363C74.0583 9.46061 73.9238 9.75 73.8281 10.0918C73.7324 10.4336 73.6846 10.8278 73.6846 11.2744V11.5615C73.6846 11.9124 73.7324 12.2428 73.8281 12.5527C73.9284 12.8581 74.0719 13.127 74.2588 13.3594C74.4502 13.5918 74.6803 13.7741 74.9492 13.9062C75.2227 14.0384 75.5326 14.1045 75.8789 14.1045C76.3255 14.1045 76.7038 14.0133 77.0137 13.8311C77.3236 13.6488 77.5947 13.4049 77.8271 13.0996L78.5928 13.708C78.4333 13.9495 78.2305 14.1797 77.9844 14.3984C77.7383 14.6172 77.4352 14.7949 77.0752 14.9316C76.7197 15.0684 76.2982 15.1367 75.8105 15.1367ZM81.4297 8.76562V15H80.165V7.60352H81.3955L81.4297 8.76562ZM83.7402 7.5625L83.7334 8.73828C83.6286 8.71549 83.5283 8.70182 83.4326 8.69727C83.3415 8.68815 83.2367 8.68359 83.1182 8.68359C82.8265 8.68359 82.569 8.72917 82.3457 8.82031C82.1224 8.91146 81.9333 9.03906 81.7783 9.20312C81.6234 9.36719 81.5003 9.56315 81.4092 9.79102C81.3226 10.0143 81.2656 10.2604 81.2383 10.5293L80.8828 10.7344C80.8828 10.2878 80.9261 9.86849 81.0127 9.47656C81.1038 9.08464 81.2428 8.73828 81.4297 8.4375C81.6165 8.13216 81.8535 7.89518 82.1406 7.72656C82.4323 7.55339 82.7786 7.4668 83.1797 7.4668C83.2708 7.4668 83.3757 7.47819 83.4941 7.50098C83.6126 7.51921 83.6947 7.53971 83.7402 7.5625ZM87.541 10.249V11.2881H84.2051V10.249H87.541ZM90.0361 9.07324V15H88.7646V7.60352H89.9678L90.0361 9.07324ZM89.7764 11.0215L89.1885 11.001C89.193 10.4951 89.2591 10.028 89.3867 9.59961C89.5143 9.16667 89.7035 8.79069 89.9541 8.47168C90.2048 8.15267 90.5169 7.90658 90.8906 7.7334C91.2643 7.55566 91.6973 7.4668 92.1895 7.4668C92.5358 7.4668 92.8548 7.51693 93.1465 7.61719C93.4382 7.71289 93.6911 7.86556 93.9053 8.0752C94.1195 8.28483 94.2858 8.55371 94.4043 8.88184C94.5228 9.20996 94.582 9.60645 94.582 10.0713V15H93.3174V10.1328C93.3174 9.74544 93.2513 9.43555 93.1191 9.20312C92.9915 8.9707 92.8092 8.80208 92.5723 8.69727C92.3353 8.58789 92.0573 8.5332 91.7383 8.5332C91.3646 8.5332 91.0524 8.59928 90.8018 8.73145C90.5511 8.86361 90.3506 9.0459 90.2002 9.27832C90.0498 9.51074 89.9404 9.77734 89.8721 10.0781C89.8083 10.3743 89.7764 10.6888 89.7764 11.0215ZM94.5684 10.3242L93.7207 10.584C93.7253 10.1784 93.7913 9.78874 93.9189 9.41504C94.0511 9.04134 94.2402 8.70866 94.4863 8.41699C94.737 8.12533 95.0446 7.89518 95.4092 7.72656C95.7738 7.55339 96.1908 7.4668 96.6602 7.4668C97.0566 7.4668 97.4076 7.51921 97.7129 7.62402C98.0228 7.72884 98.2826 7.89062 98.4922 8.10938C98.7064 8.32357 98.8682 8.59928 98.9775 8.93652C99.0869 9.27376 99.1416 9.6748 99.1416 10.1396V15H97.8701V10.126C97.8701 9.71126 97.804 9.38997 97.6719 9.16211C97.5443 8.92969 97.362 8.7679 97.125 8.67676C96.8926 8.58105 96.6146 8.5332 96.291 8.5332C96.013 8.5332 95.7669 8.58105 95.5527 8.67676C95.3385 8.77246 95.1585 8.90462 95.0127 9.07324C94.8669 9.2373 94.7552 9.42643 94.6777 9.64062C94.6048 9.85482 94.5684 10.0827 94.5684 10.3242ZM105.417 13.7354V9.92773C105.417 9.63607 105.358 9.38314 105.239 9.16895C105.125 8.9502 104.952 8.78158 104.72 8.66309C104.487 8.5446 104.2 8.48535 103.858 8.48535C103.539 8.48535 103.259 8.54004 103.018 8.64941C102.781 8.75879 102.594 8.90234 102.457 9.08008C102.325 9.25781 102.259 9.44922 102.259 9.6543H100.994C100.994 9.38997 101.062 9.12793 101.199 8.86816C101.336 8.6084 101.532 8.3737 101.787 8.16406C102.047 7.94987 102.357 7.78125 102.717 7.6582C103.081 7.5306 103.487 7.4668 103.934 7.4668C104.471 7.4668 104.945 7.55794 105.355 7.74023C105.77 7.92253 106.094 8.19824 106.326 8.56738C106.563 8.93197 106.682 9.38997 106.682 9.94141V13.3867C106.682 13.6328 106.702 13.8949 106.743 14.1729C106.789 14.4508 106.855 14.6901 106.941 14.8906V15H105.622C105.558 14.8542 105.508 14.6605 105.472 14.4189C105.435 14.1729 105.417 13.945 105.417 13.7354ZM105.636 10.5156L105.649 11.4043H104.371C104.011 11.4043 103.69 11.4339 103.407 11.4932C103.125 11.5479 102.888 11.6322 102.696 11.7461C102.505 11.86 102.359 12.0036 102.259 12.1768C102.159 12.3454 102.108 12.5436 102.108 12.7715C102.108 13.0039 102.161 13.2158 102.266 13.4072C102.37 13.5986 102.528 13.7513 102.737 13.8652C102.951 13.9746 103.214 14.0293 103.523 14.0293C103.911 14.0293 104.253 13.9473 104.549 13.7832C104.845 13.6191 105.08 13.4186 105.253 13.1816C105.431 12.9447 105.526 12.7145 105.54 12.4912L106.08 13.0996C106.048 13.291 105.962 13.5029 105.82 13.7354C105.679 13.9678 105.49 14.1911 105.253 14.4053C105.021 14.6149 104.743 14.7904 104.419 14.9316C104.1 15.0684 103.74 15.1367 103.339 15.1367C102.838 15.1367 102.398 15.0387 102.02 14.8428C101.646 14.6468 101.354 14.3848 101.145 14.0566C100.939 13.724 100.837 13.3525 100.837 12.9424C100.837 12.5459 100.914 12.1973 101.069 11.8965C101.224 11.5911 101.448 11.3382 101.739 11.1377C102.031 10.9326 102.382 10.7777 102.792 10.6729C103.202 10.568 103.66 10.5156 104.166 10.5156H105.636ZM109.936 9.18262V15H108.671V7.60352H109.867L109.936 9.18262ZM109.635 11.0215L109.108 11.001C109.113 10.4951 109.188 10.028 109.334 9.59961C109.48 9.16667 109.685 8.79069 109.949 8.47168C110.214 8.15267 110.528 7.90658 110.893 7.7334C111.262 7.55566 111.67 7.4668 112.116 7.4668C112.481 7.4668 112.809 7.51693 113.101 7.61719C113.392 7.71289 113.641 7.86784 113.846 8.08203C114.055 8.29622 114.215 8.57422 114.324 8.91602C114.434 9.25326 114.488 9.66569 114.488 10.1533V15H113.217V10.1396C113.217 9.75228 113.16 9.44238 113.046 9.20996C112.932 8.97298 112.766 8.80208 112.547 8.69727C112.328 8.58789 112.059 8.5332 111.74 8.5332C111.426 8.5332 111.139 8.59928 110.879 8.73145C110.624 8.86361 110.403 9.0459 110.216 9.27832C110.034 9.51074 109.89 9.77734 109.785 10.0781C109.685 10.3743 109.635 10.6888 109.635 11.0215ZM120.771 13.7354V9.92773C120.771 9.63607 120.711 9.38314 120.593 9.16895C120.479 8.9502 120.306 8.78158 120.073 8.66309C119.841 8.5446 119.554 8.48535 119.212 8.48535C118.893 8.48535 118.613 8.54004 118.371 8.64941C118.134 8.75879 117.947 8.90234 117.811 9.08008C117.678 9.25781 117.612 9.44922 117.612 9.6543H116.348C116.348 9.38997 116.416 9.12793 116.553 8.86816C116.689 8.6084 116.885 8.3737 117.141 8.16406C117.4 7.94987 117.71 7.78125 118.07 7.6582C118.435 7.5306 118.84 7.4668 119.287 7.4668C119.825 7.4668 120.299 7.55794 120.709 7.74023C121.124 7.92253 121.447 8.19824 121.68 8.56738C121.917 8.93197 122.035 9.38997 122.035 9.94141V13.3867C122.035 13.6328 122.056 13.8949 122.097 14.1729C122.142 14.4508 122.208 14.6901 122.295 14.8906V15H120.976C120.912 14.8542 120.862 14.6605 120.825 14.4189C120.789 14.1729 120.771 13.945 120.771 13.7354ZM120.989 10.5156L121.003 11.4043H119.725C119.365 11.4043 119.043 11.4339 118.761 11.4932C118.478 11.5479 118.241 11.6322 118.05 11.7461C117.858 11.86 117.713 12.0036 117.612 12.1768C117.512 12.3454 117.462 12.5436 117.462 12.7715C117.462 13.0039 117.514 13.2158 117.619 13.4072C117.724 13.5986 117.881 13.7513 118.091 13.8652C118.305 13.9746 118.567 14.0293 118.877 14.0293C119.264 14.0293 119.606 13.9473 119.902 13.7832C120.199 13.6191 120.433 13.4186 120.606 13.1816C120.784 12.9447 120.88 12.7145 120.894 12.4912L121.434 13.0996C121.402 13.291 121.315 13.5029 121.174 13.7354C121.033 13.9678 120.843 14.1911 120.606 14.4053C120.374 14.6149 120.096 14.7904 119.772 14.9316C119.453 15.0684 119.093 15.1367 118.692 15.1367C118.191 15.1367 117.751 15.0387 117.373 14.8428C116.999 14.6468 116.708 14.3848 116.498 14.0566C116.293 13.724 116.19 13.3525 116.19 12.9424C116.19 12.5459 116.268 12.1973 116.423 11.8965C116.578 11.5911 116.801 11.3382 117.093 11.1377C117.384 10.9326 117.735 10.7777 118.146 10.6729C118.556 10.568 119.014 10.5156 119.52 10.5156H120.989ZM128.816 7.60352H129.965V14.8428C129.965 15.4945 129.833 16.0505 129.568 16.5107C129.304 16.971 128.935 17.3197 128.461 17.5566C127.992 17.7982 127.449 17.9189 126.834 17.9189C126.579 17.9189 126.278 17.8779 125.932 17.7959C125.59 17.7184 125.253 17.584 124.92 17.3926C124.592 17.2057 124.316 16.9528 124.093 16.6338L124.756 15.8818C125.066 16.2555 125.389 16.5153 125.727 16.6611C126.068 16.807 126.406 16.8799 126.738 16.8799C127.139 16.8799 127.486 16.8047 127.777 16.6543C128.069 16.5039 128.295 16.2806 128.454 15.9844C128.618 15.6927 128.7 15.3327 128.7 14.9043V9.23047L128.816 7.60352ZM123.724 11.3838V11.2402C123.724 10.6751 123.79 10.1624 123.922 9.70215C124.059 9.2373 124.252 8.83854 124.503 8.50586C124.758 8.17318 125.066 7.91797 125.426 7.74023C125.786 7.55794 126.191 7.4668 126.643 7.4668C127.107 7.4668 127.513 7.54883 127.859 7.71289C128.21 7.8724 128.507 8.1071 128.748 8.41699C128.994 8.72233 129.188 9.09147 129.329 9.52441C129.47 9.95736 129.568 10.4473 129.623 10.9941V11.623C129.573 12.1654 129.475 12.653 129.329 13.0859C129.188 13.5189 128.994 13.888 128.748 14.1934C128.507 14.4987 128.21 14.7334 127.859 14.8975C127.508 15.057 127.098 15.1367 126.629 15.1367C126.187 15.1367 125.786 15.0433 125.426 14.8564C125.07 14.6696 124.765 14.4076 124.51 14.0703C124.255 13.7331 124.059 13.3366 123.922 12.8809C123.79 12.4206 123.724 11.9215 123.724 11.3838ZM124.988 11.2402V11.3838C124.988 11.7529 125.025 12.0993 125.098 12.4229C125.175 12.7464 125.291 13.0312 125.446 13.2773C125.606 13.5234 125.809 13.7171 126.055 13.8584C126.301 13.9951 126.595 14.0635 126.937 14.0635C127.356 14.0635 127.702 13.9746 127.976 13.7969C128.249 13.6191 128.465 13.3844 128.625 13.0928C128.789 12.8011 128.917 12.4844 129.008 12.1426V10.4951C128.958 10.2445 128.88 10.0029 128.775 9.77051C128.675 9.53353 128.543 9.32389 128.379 9.1416C128.219 8.95475 128.021 8.80664 127.784 8.69727C127.547 8.58789 127.269 8.5332 126.95 8.5332C126.604 8.5332 126.305 8.60612 126.055 8.75195C125.809 8.89323 125.606 9.08919 125.446 9.33984C125.291 9.58594 125.175 9.87305 125.098 10.2012C125.025 10.5247 124.988 10.8711 124.988 11.2402ZM134.955 15.1367C134.44 15.1367 133.973 15.0501 133.554 14.877C133.139 14.6992 132.781 14.4508 132.48 14.1318C132.184 13.8128 131.956 13.4346 131.797 12.9971C131.637 12.5596 131.558 12.0811 131.558 11.5615V11.2744C131.558 10.6729 131.646 10.1374 131.824 9.66797C132.002 9.19401 132.243 8.79297 132.549 8.46484C132.854 8.13672 133.201 7.88835 133.588 7.71973C133.975 7.55111 134.376 7.4668 134.791 7.4668C135.32 7.4668 135.775 7.55794 136.158 7.74023C136.546 7.92253 136.862 8.17773 137.108 8.50586C137.354 8.82943 137.537 9.21224 137.655 9.6543C137.774 10.0918 137.833 10.5703 137.833 11.0898V11.6572H132.31V10.625H136.568V10.5293C136.55 10.2012 136.482 9.88216 136.363 9.57227C136.249 9.26237 136.067 9.00716 135.816 8.80664C135.566 8.60612 135.224 8.50586 134.791 8.50586C134.504 8.50586 134.24 8.56738 133.998 8.69043C133.757 8.80892 133.549 8.98665 133.376 9.22363C133.203 9.46061 133.068 9.75 132.973 10.0918C132.877 10.4336 132.829 10.8278 132.829 11.2744V11.5615C132.829 11.9124 132.877 12.2428 132.973 12.5527C133.073 12.8581 133.216 13.127 133.403 13.3594C133.595 13.5918 133.825 13.7741 134.094 13.9062C134.367 14.0384 134.677 14.1045 135.023 14.1045C135.47 14.1045 135.848 14.0133 136.158 13.8311C136.468 13.6488 136.739 13.4049 136.972 13.0996L137.737 13.708C137.578 13.9495 137.375 14.1797 137.129 14.3984C136.883 14.6172 136.58 14.7949 136.22 14.9316C135.864 15.0684 135.443 15.1367 134.955 15.1367ZM140.567 9.07324V15H139.296V7.60352H140.499L140.567 9.07324ZM140.308 11.0215L139.72 11.001C139.724 10.4951 139.79 10.028 139.918 9.59961C140.046 9.16667 140.235 8.79069 140.485 8.47168C140.736 8.15267 141.048 7.90658 141.422 7.7334C141.796 7.55566 142.229 7.4668 142.721 7.4668C143.067 7.4668 143.386 7.51693 143.678 7.61719C143.969 7.71289 144.222 7.86556 144.437 8.0752C144.651 8.28483 144.817 8.55371 144.936 8.88184C145.054 9.20996 145.113 9.60645 145.113 10.0713V15H143.849V10.1328C143.849 9.74544 143.783 9.43555 143.65 9.20312C143.523 8.9707 143.34 8.80208 143.104 8.69727C142.867 8.58789 142.589 8.5332 142.27 8.5332C141.896 8.5332 141.584 8.59928 141.333 8.73145C141.082 8.86361 140.882 9.0459 140.731 9.27832C140.581 9.51074 140.472 9.77734 140.403 10.0781C140.34 10.3743 140.308 10.6888 140.308 11.0215ZM145.1 10.3242L144.252 10.584C144.257 10.1784 144.323 9.78874 144.45 9.41504C144.582 9.04134 144.771 8.70866 145.018 8.41699C145.268 8.12533 145.576 7.89518 145.94 7.72656C146.305 7.55339 146.722 7.4668 147.191 7.4668C147.588 7.4668 147.939 7.51921 148.244 7.62402C148.554 7.72884 148.814 7.89062 149.023 8.10938C149.238 8.32357 149.399 8.59928 149.509 8.93652C149.618 9.27376 149.673 9.6748 149.673 10.1396V15H148.401V10.126C148.401 9.71126 148.335 9.38997 148.203 9.16211C148.076 8.92969 147.893 8.7679 147.656 8.67676C147.424 8.58105 147.146 8.5332 146.822 8.5332C146.544 8.5332 146.298 8.58105 146.084 8.67676C145.87 8.77246 145.69 8.90462 145.544 9.07324C145.398 9.2373 145.286 9.42643 145.209 9.64062C145.136 9.85482 145.1 10.0827 145.1 10.3242ZM154.656 15.1367C154.141 15.1367 153.674 15.0501 153.255 14.877C152.84 14.6992 152.482 14.4508 152.182 14.1318C151.885 13.8128 151.658 13.4346 151.498 12.9971C151.339 12.5596 151.259 12.0811 151.259 11.5615V11.2744C151.259 10.6729 151.348 10.1374 151.525 9.66797C151.703 9.19401 151.945 8.79297 152.25 8.46484C152.555 8.13672 152.902 7.88835 153.289 7.71973C153.676 7.55111 154.077 7.4668 154.492 7.4668C155.021 7.4668 155.477 7.55794 155.859 7.74023C156.247 7.92253 156.563 8.17773 156.81 8.50586C157.056 8.82943 157.238 9.21224 157.356 9.6543C157.475 10.0918 157.534 10.5703 157.534 11.0898V11.6572H152.011V10.625H156.27V10.5293C156.251 10.2012 156.183 9.88216 156.064 9.57227C155.951 9.26237 155.768 9.00716 155.518 8.80664C155.267 8.60612 154.925 8.50586 154.492 8.50586C154.205 8.50586 153.941 8.56738 153.699 8.69043C153.458 8.80892 153.25 8.98665 153.077 9.22363C152.904 9.46061 152.77 9.75 152.674 10.0918C152.578 10.4336 152.53 10.8278 152.53 11.2744V11.5615C152.53 11.9124 152.578 12.2428 152.674 12.5527C152.774 12.8581 152.918 13.127 153.104 13.3594C153.296 13.5918 153.526 13.7741 153.795 13.9062C154.068 14.0384 154.378 14.1045 154.725 14.1045C155.171 14.1045 155.549 14.0133 155.859 13.8311C156.169 13.6488 156.44 13.4049 156.673 13.0996L157.438 13.708C157.279 13.9495 157.076 14.1797 156.83 14.3984C156.584 14.6172 156.281 14.7949 155.921 14.9316C155.565 15.0684 155.144 15.1367 154.656 15.1367ZM160.275 9.18262V15H159.011V7.60352H160.207L160.275 9.18262ZM159.975 11.0215L159.448 11.001C159.453 10.4951 159.528 10.028 159.674 9.59961C159.82 9.16667 160.025 8.79069 160.289 8.47168C160.553 8.15267 160.868 7.90658 161.232 7.7334C161.602 7.55566 162.009 7.4668 162.456 7.4668C162.821 7.4668 163.149 7.51693 163.44 7.61719C163.732 7.71289 163.98 7.86784 164.186 8.08203C164.395 8.29622 164.555 8.57422 164.664 8.91602C164.773 9.25326 164.828 9.66569 164.828 10.1533V15H163.557V10.1396C163.557 9.75228 163.5 9.44238 163.386 9.20996C163.272 8.97298 163.105 8.80208 162.887 8.69727C162.668 8.58789 162.399 8.5332 162.08 8.5332C161.766 8.5332 161.479 8.59928 161.219 8.73145C160.964 8.86361 160.743 9.0459 160.556 9.27832C160.373 9.51074 160.23 9.77734 160.125 10.0781C160.025 10.3743 159.975 10.6888 159.975 11.0215ZM169.846 7.60352V8.57422H165.847V7.60352H169.846ZM167.2 5.80566H168.465V13.168C168.465 13.4186 168.504 13.6077 168.581 13.7354C168.659 13.863 168.759 13.9473 168.882 13.9883C169.005 14.0293 169.137 14.0498 169.278 14.0498C169.383 14.0498 169.493 14.0407 169.606 14.0225C169.725 13.9997 169.814 13.9814 169.873 13.9678L169.88 15C169.78 15.0319 169.647 15.0615 169.483 15.0889C169.324 15.1208 169.13 15.1367 168.902 15.1367C168.592 15.1367 168.308 15.0752 168.048 14.9521C167.788 14.8291 167.581 14.624 167.426 14.3369C167.275 14.0452 167.2 13.6533 167.2 13.1611V5.80566Z" fill="#E0E0E0"/>
<path d="M192 17.5V14.5975C192.028 14.2398 191.98 13.8803 191.858 13.5428C191.737 13.2053 191.545 12.8975 191.295 12.64C193.65 12.3775 196.125 11.485 196.125 7.38995C196.125 6.34282 195.722 5.33585 195 4.57745C195.342 3.66133 195.318 2.64872 194.932 1.74995C194.932 1.74995 194.048 1.48745 192 2.85995C190.281 2.39407 188.469 2.39407 186.75 2.85995C184.702 1.48745 183.818 1.74995 183.818 1.74995C183.432 2.64872 183.408 3.66133 183.75 4.57745C183.023 5.34148 182.619 6.35755 182.625 7.41245C182.625 11.4775 185.1 12.37 187.455 12.6625C187.208 12.9174 187.018 13.2215 186.896 13.5549C186.775 13.8883 186.725 14.2435 186.75 14.5975V17.5M186.75 15.25C183 16.375 183 13.375 181.5 13L186.75 15.25Z" stroke="black" stroke-width="0.75" stroke-linecap="round" stroke-linejoin="round"/>
</svg>
